<?xml version="1.0" standalone="no"?>
<!DOCTYPE svg PUBLIC "-//W3C//DTD SVG 20010904//EN"
 "http://www.w3.org/TR/2001/REC-SVG-20010904/DTD/svg10.dtd">
<svg version="1.0" xmlns="http://www.w3.org/2000/svg"
 width="519.000000pt" height="519.000000pt" viewBox="0 0 519.000000 519.000000"
 preserveAspectRatio="xMidYMid meet">

<g transform="translate(0.000000,519.000000) scale(0.100000,-0.100000)"
fill="#000000" stroke="none">
<path d="M2228 4720 c-2 -7 -15 -14 -28 -15 -14 -1 -31 -3 -38 -4 -7 0 -10 -5
-7 -11 4 -6 -6 -10 -22 -9 -25 0 -26 1 -8 9 11 5 14 9 7 9 -19 1 -52 -18 -52
-29 0 -6 23 -10 50 -10 28 0 50 4 50 9 0 4 16 15 35 22 25 10 32 18 26 28 -7
10 -10 10 -13 1z"/>
<path d="M2686 4641 c-66 -4 -101 -10 -104 -18 -2 -7 -12 -13 -23 -13 -10 0
-19 -4 -19 -9 0 -5 -11 -12 -24 -15 -14 -3 -28 -15 -31 -26 -3 -11 -11 -20
-16 -20 -5 0 -9 -7 -9 -15 0 -8 -4 -15 -8 -15 -5 0 -24 -13 -42 -30 -33 -29
-36 -30 -136 -30 -94 0 -149 -11 -164 -32 -3 -4 -17 -11 -30 -17 -24 -9 -24
-10 -3 -10 12 -1 25 4 28 9 3 6 14 10 25 10 10 0 21 7 24 16 5 14 18 15 95 9
97 -8 194 11 205 40 3 8 12 15 20 15 8 0 21 8 28 18 7 10 20 21 28 25 8 4 22
12 31 19 25 17 52 3 44 -24 -4 -13 -3 -18 2 -11 15 21 73 20 73 -1 0 -9 9 -12
28 -10 26 4 26 4 -3 -6 -16 -5 -36 -8 -42 -5 -7 2 -13 1 -13 -4 0 -4 -13 -8
-30 -8 -16 0 -32 -2 -35 -5 -8 -8 27 -182 37 -186 13 -6 9 -52 -4 -52 -9 0
-10 -2 -2 -8 6 -4 14 -33 18 -64 7 -53 19 -74 28 -48 2 5 35 16 73 23 l70 12
-1 60 c0 33 -6 111 -12 174 -8 80 -9 118 -1 130 9 14 10 14 5 -1 -3 -10 -1
-18 4 -18 6 0 10 -9 10 -19 0 -11 5 -21 11 -23 16 -5 38 -131 39 -220 0 -45 4
-78 10 -78 6 0 10 -11 10 -25 0 -26 14 -34 24 -12 3 6 4 -1 1 -18 -11 -68 -13
-158 -5 -181 7 -17 17 -24 35 -24 15 0 24 -4 20 -10 -4 -6 -11 -8 -16 -5 -5 4
-9 -5 -9 -19 0 -13 -5 -26 -12 -28 -15 -5 -12 -151 2 -156 6 -2 10 -10 10 -18
0 -17 16 -18 27 -1 4 6 17 17 28 23 14 8 21 24 23 55 2 24 9 47 15 52 9 7 9
10 0 14 -15 6 -18 83 -3 83 6 0 10 -17 10 -37 0 -49 15 -75 25 -44 8 27 25 27
25 1 0 -11 -4 -20 -9 -20 -5 0 -15 -29 -22 -64 -11 -55 -14 -62 -26 -50 -16
16 -33 10 -33 -11 0 -7 -11 -16 -25 -19 -18 -5 -26 -15 -31 -43 -6 -30 -1
-140 9 -228 1 -15 -4 -20 -23 -20 -22 0 -26 5 -32 50 -3 28 -7 78 -7 111 -1
46 -5 63 -16 68 -13 5 -14 17 -9 72 6 58 5 69 -11 81 -27 19 -35 16 -35 -12 0
-17 -8 -29 -25 -37 -14 -6 -25 -16 -25 -23 0 -6 -14 -26 -31 -43 l-31 -32 6
-102 c4 -57 11 -104 16 -106 6 -2 10 -12 10 -22 0 -19 -19 -30 -51 -30 -10 0
-19 -4 -19 -8 0 -9 -248 -42 -312 -42 -24 0 -38 5 -38 13 0 9 -3 8 -9 -2 -7
-10 -13 -11 -30 -2 -19 10 -21 9 -21 -13 0 -22 -6 -25 -70 -37 -38 -7 -70 -15
-70 -19 0 -4 -12 -10 -27 -13 -89 -18 -133 -31 -133 -38 0 -5 -26 -16 -57 -25
-32 -9 -60 -20 -63 -24 -3 -4 -26 -15 -52 -25 -27 -10 -48 -21 -48 -25 0 -4
-26 -15 -57 -26 -32 -10 -61 -23 -64 -27 -9 -12 -75 -26 -87 -18 -6 3 -13 20
-17 36 -15 66 -27 95 -41 95 -8 0 -14 -8 -14 -19 0 -14 -6 -17 -24 -14 -29 6
-25 29 6 39 19 6 20 11 14 82 -11 121 -15 133 -41 126 -18 -4 -22 -1 -21 18 2
42 -29 33 -43 -14 -7 -24 -17 -45 -21 -48 -4 -3 -11 -23 -14 -45 -10 -59 -26
-68 -26 -14 0 25 3 49 6 52 4 3 6 46 6 94 0 122 1 117 -15 101 -22 -22 -28
-48 -12 -48 8 0 15 -7 15 -15 0 -8 -4 -15 -10 -15 -5 0 -10 5 -10 10 0 6 -4
10 -10 10 -5 0 -10 -9 -10 -19 0 -11 5 -23 10 -26 18 -11 10 -25 -14 -25 -13
0 -27 7 -30 16 -4 10 -15 14 -33 12 -27 -3 -28 -5 -25 -58 4 -74 -16 -180 -34
-180 -9 0 -14 12 -14 38 0 20 -5 44 -10 52 -7 11 -10 -2 -10 -42 0 -32 -4 -58
-10 -58 -17 0 -11 -50 8 -70 27 -29 65 -40 108 -29 22 4 42 9 47 9 10 0 -4
-54 -15 -58 -4 -2 -8 -33 -8 -68 0 -50 3 -64 15 -64 8 0 15 -4 15 -10 0 -5 -8
-10 -17 -10 -15 0 -16 -2 -3 -10 13 -9 13 -11 1 -19 -18 -11 -41 -3 -41 14 0
11 -20 25 -36 25 -8 0 10 -36 25 -48 12 -10 15 -27 13 -75 -2 -34 -7 -63 -12
-65 -15 -6 -12 -52 5 -68 8 -9 15 -32 15 -53 0 -51 21 -151 31 -151 5 0 9 -8
9 -19 0 -10 7 -31 15 -47 17 -33 14 -40 -12 -23 -17 10 -30 33 -47 82 -11 34
-26 16 -26 -33 0 -27 4 -50 9 -50 4 0 11 -19 14 -42 14 -92 27 -152 35 -157 5
-3 14 -27 22 -54 7 -26 19 -51 26 -55 8 -4 21 -38 30 -75 9 -37 20 -67 24 -67
5 0 16 -22 26 -50 10 -28 21 -50 25 -50 4 0 13 -16 19 -35 6 -19 17 -41 24
-48 7 -6 19 -27 28 -44 16 -32 16 -34 -10 -60 -15 -16 -33 -40 -41 -55 -8 -16
-18 -28 -22 -28 -5 0 -11 -15 -14 -34 -4 -19 -16 -44 -28 -57 -14 -15 -17 -24
-9 -27 13 -4 17 -48 4 -54 -5 -2 -16 -45 -25 -97 -9 -52 -19 -96 -21 -98 -2
-3 -23 -7 -47 -10 -29 -4 -43 -11 -46 -24 -3 -11 -9 -19 -13 -19 -5 0 -12 -10
-15 -22 -4 -13 -20 -35 -36 -50 -39 -36 -38 -50 4 -36 17 6 35 15 38 20 3 5
35 11 71 15 l66 6 -5 -27 c-4 -20 -11 -26 -22 -23 -14 3 -16 -2 -13 -24 2 -16
0 -29 -5 -29 -6 0 -9 -19 -7 -42 3 -31 1 -37 -5 -23 -5 11 -7 33 -6 48 2 15
-2 27 -8 27 -7 0 -19 5 -27 10 -13 9 -13 11 0 20 12 8 9 10 -12 10 -29 0 -40
-24 -16 -33 7 -2 1 -8 -14 -12 -18 -5 -28 -14 -28 -26 0 -10 -6 -19 -12 -19
-9 0 -8 -4 2 -10 11 -7 12 -10 2 -10 -23 0 -41 -25 -30 -43 10 -18 -6 -93 -21
-99 -5 -2 -12 -23 -16 -47 -3 -23 -10 -53 -14 -65 -4 -11 -7 -27 -7 -35 2 -35
332 -244 347 -220 5 8 9 6 12 -7 4 -16 5 -16 6 4 2 33 31 28 31 -6 0 -24 9
-33 68 -64 79 -43 306 -127 412 -153 41 -10 97 -24 124 -31 62 -17 67 -17 60
1 -5 11 1 15 20 15 20 0 26 -5 24 -17 -4 -21 22 -27 222 -48 317 -34 723 11
1035 114 124 41 218 77 266 101 41 21 40 35 -1 53 -8 4 -1 5 15 1 17 -3 31 -9
33 -14 5 -14 70 14 177 75 207 119 344 225 535 414 100 100 121 125 106 129
-11 2 -25 -3 -31 -12 -7 -9 -15 -16 -18 -16 -11 0 -62 57 -77 86 -16 34 -49
63 -69 64 -8 0 -19 7 -25 15 -7 9 -46 19 -111 27 -55 7 -102 15 -105 19 -3 3
-36 12 -74 20 -38 7 -75 19 -82 26 -7 8 -36 13 -68 13 -55 0 -86 16 -86 45 0
7 -6 16 -12 18 -9 4 -9 8 -3 14 11 9 31 40 42 63 3 8 12 19 20 23 7 4 13 14
13 22 0 8 8 20 18 27 9 7 26 30 37 51 11 20 23 37 27 37 5 0 8 10 8 23 0 25
24 65 52 85 10 7 18 19 18 27 0 7 6 20 13 27 7 7 22 34 32 61 10 26 21 47 24
47 4 0 15 34 26 75 10 41 22 75 26 75 4 0 15 41 25 90 10 50 21 90 25 90 4 0
12 36 19 81 7 44 18 86 24 92 12 12 46 163 46 205 0 12 4 22 9 22 5 0 11 24
14 53 4 44 2 54 -15 68 -17 13 -20 23 -14 53 4 20 11 36 15 36 13 0 41 141 39
199 -1 35 2 56 10 59 15 5 16 102 2 102 -16 0 -11 50 7 68 12 12 18 13 20 5 3
-9 11 -6 25 7 19 18 21 27 15 112 -3 51 -11 94 -17 96 -5 2 -10 23 -10 47 0
43 -1 44 -37 52 -21 4 -43 6 -50 5 -11 -3 -25 33 -39 106 -4 18 -10 32 -14 32
-5 0 -11 14 -15 30 -5 21 -14 32 -32 36 -23 6 -24 9 -18 56 7 49 -19 178 -35
178 -4 0 -15 16 -24 35 -9 19 -21 35 -26 35 -5 0 -17 17 -27 37 -9 21 -24 45
-33 55 -8 9 -24 29 -35 44 -11 15 -32 40 -47 55 -16 15 -28 31 -28 36 0 5 -28
34 -61 64 -34 30 -73 66 -87 82 -15 15 -32 27 -40 27 -7 0 -15 7 -18 15 -4 8
-23 23 -43 32 -20 10 -42 23 -49 30 -7 7 -19 13 -26 13 -7 0 -21 8 -32 19 -24
21 -118 51 -163 51 -17 0 -31 4 -31 9 0 5 -52 11 -116 13 -106 3 -117 5 -134
26 -10 12 -23 22 -29 22 -6 0 -17 14 -26 30 -9 17 -19 30 -23 30 -5 0 -18 10
-31 21 -22 20 -126 41 -186 37 -11 -1 -65 -4 -119 -7z m-6 -70 c0 -5 -7 -12
-16 -15 -22 -9 -24 -8 -24 9 0 8 9 15 20 15 11 0 20 -4 20 -9z m307 -133 c-3
-8 -6 -5 -6 6 -1 11 2 17 5 13 3 -3 4 -12 1 -19z m11 -244 c1 -26 0 -45 -3
-43 -7 8 -12 89 -5 89 4 0 8 -21 8 -46z m12 -115 c0 -10 4 -19 9 -19 4 0 16
-21 26 -47 10 -27 23 -51 29 -55 7 -5 5 -8 -5 -8 -9 0 -20 10 -24 23 -6 19 -8
19 -12 5 -9 -35 -27 -13 -39 47 -7 35 -19 54 -37 60 -20 7 -20 8 8 14 37 9 45
5 45 -20z m20 -139 c0 -5 -7 -10 -15 -10 -8 0 -15 5 -15 10 0 6 7 10 15 10 8
0 15 -4 15 -10z m54 -25 c3 -9 0 -15 -9 -15 -8 0 -15 7 -15 15 0 8 4 15 9 15
5 0 11 -7 15 -15z m6 -45 c0 -5 -7 -10 -15 -10 -8 0 -15 5 -15 10 0 6 7 10 15
10 8 0 15 -4 15 -10z m999 -47 c13 -44 14 -93 4 -93 -21 1 -32 20 -41 67 -5
29 -7 55 -4 58 15 15 32 1 41 -32z m21 -129 c0 -8 -5 -12 -10 -9 -6 4 -8 11
-5 16 9 14 15 11 15 -7z m-80 -24 c0 -5 -4 -10 -10 -10 -5 0 -10 5 -10 10 0 6
5 10 10 10 6 0 10 -4 10 -10z m100 -20 c0 -5 -4 -10 -10 -10 -5 0 -10 5 -10
10 0 6 5 10 10 10 6 0 10 -4 10 -10z m-1340 -30 c0 -5 12 -10 26 -10 14 0 23
-4 19 -10 -3 -5 -23 -10 -45 -10 -33 0 -37 3 -33 20 5 20 33 29 33 10z m1240
0 c0 -5 -4 -10 -10 -10 -5 0 -10 5 -10 10 0 6 5 10 10 10 6 0 10 -4 10 -10z
m55 -20 c8 -13 7 -212 -1 -245 -3 -14 -12 -25 -20 -25 -12 0 -13 21 -10 118 3
64 5 127 5 140 1 23 15 30 26 12z m-1038 -62 c-3 -8 -6 -5 -6 6 -1 11 2 17 5
13 3 -3 4 -12 1 -19z m13 -120 c0 -87 -10 -84 -17 6 -3 45 -2 66 6 66 7 0 11
-26 11 -72z m-1766 -269 c5 -33 12 -43 36 -52 18 -7 30 -19 30 -30 0 -12 -4
-16 -12 -11 -18 11 -37 27 -51 42 -7 7 -20 21 -29 30 -27 25 -22 62 7 62 7 0
15 -18 19 -41z m2710 16 c3 -8 1 -15 -4 -15 -6 0 -10 7 -10 15 0 8 2 15 4 15
2 0 6 -7 10 -15z m60 -21 c17 -6 23 -44 7 -44 -5 0 -17 7 -25 16 -28 27 -18
42 18 28z m-2824 -69 c0 -8 -7 -15 -15 -15 -26 0 -18 20 13 29 1 1 2 -6 2 -14z
m2920 -6 c0 -5 -4 -9 -10 -9 -5 0 -10 7 -10 16 0 8 5 12 10 9 6 -3 10 -10 10
-16z m-1674 -55 c-3 -9 -6 -20 -6 -25 0 -5 -7 -9 -15 -9 -8 0 -15 4 -15 9 0
21 13 41 27 41 10 0 13 -6 9 -16z m18 -63 c-9 -10 -26 18 -18 30 5 9 9 8 14
-7 4 -10 6 -21 4 -23z m531 -11 c3 -5 -1 -10 -9 -10 -8 0 -18 5 -21 10 -3 6 1
10 9 10 8 0 18 -4 21 -10z m-762 -57 c-20 -8 -15 -23 7 -23 11 0 20 6 20 13 0
7 3 8 8 2 4 -6 22 -17 41 -25 33 -16 32 -16 -64 -16 -71 -1 -99 -4 -105 -15
-5 -7 -12 -10 -16 -6 -13 12 27 34 54 29 21 -4 24 -2 18 13 -7 20 8 35 34 34
10 0 11 -2 3 -6z m1165 -11 c2 -7 -7 -12 -22 -12 -13 0 -28 -4 -31 -10 -3 -5
-16 -9 -28 -9 -20 1 -21 2 -2 6 11 3 28 14 38 25 20 20 38 20 45 0z m-78 -2
c0 -5 -4 -10 -10 -10 -5 0 -10 5 -10 10 0 6 5 10 10 10 6 0 10 -4 10 -10z
m-708 -75 c26 -3 51 -12 55 -18 15 -24 63 -47 98 -47 19 0 35 -4 35 -10 0 -5
11 -12 25 -16 21 -5 42 -36 37 -56 -1 -4 5 -5 14 -1 10 4 12 8 5 13 -6 3 -13
16 -16 28 -3 19 1 22 27 22 25 0 29 3 25 19 -7 27 22 16 34 -13 8 -20 9 -19 6
4 -2 22 2 25 30 26 18 1 30 -3 27 -7 -3 -5 -14 -9 -25 -9 -10 0 -19 -4 -19
-10 0 -5 6 -10 13 -10 18 0 16 -49 -3 -60 -13 -9 -13 -10 0 -10 13 0 13 -1 0
-10 -13 -9 -13 -11 0 -21 11 -8 12 -12 3 -16 -7 -2 -13 -11 -13 -18 0 -15 84
-37 107 -28 7 3 13 0 13 -6 0 -6 5 -11 11 -11 5 0 7 5 4 10 -3 6 -1 10 4 10 6
0 11 -8 11 -19 0 -23 39 -36 47 -16 5 16 35 28 71 30 28 1 34 -6 21 -25 -6
-10 -9 -11 -9 -2 0 6 -7 12 -15 12 -8 0 -15 -6 -15 -12 0 -10 -2 -10 -9 0 -7
11 -9 11 -14 -2 -4 -9 -1 -17 6 -17 61 -7 87 -7 92 1 4 6 11 10 16 10 6 0 7
-4 4 -10 -3 -6 4 -10 16 -10 12 0 20 3 16 6 -11 12 44 50 66 46 4 -1 7 7 7 18
0 11 7 20 16 20 9 0 12 5 8 12 -5 7 -3 8 6 3 7 -4 16 -2 20 6 11 17 41 -6 34
-26 -3 -7 3 -16 15 -20 24 -7 27 -20 9 -29 -10 -5 -10 -7 0 -12 14 -7 17 -64
2 -64 -5 0 -10 -17 -10 -37 0 -20 -5 -65 -11 -101 -9 -53 -14 -63 -29 -59 -15
4 -16 -2 -13 -47 1 -28 0 -45 -3 -37 -5 11 -8 11 -15 0 -7 -11 -9 -10 -9 4 0
23 -16 22 -23 -3 -3 -13 0 -20 9 -20 24 0 16 -38 -8 -42 -16 -2 -22 -9 -21
-23 5 -35 -10 -47 -42 -35 -15 6 -30 8 -33 5 -3 -3 0 -5 6 -5 7 0 12 -5 12
-11 0 -6 -6 -9 -14 -6 -10 4 -18 -8 -27 -39 -11 -35 -17 -43 -31 -38 -10 3
-18 1 -18 -4 0 -6 -11 -13 -25 -16 -14 -4 -25 -12 -25 -19 0 -8 -11 -12 -27
-12 -16 1 -36 -3 -46 -8 -12 -5 -23 -4 -33 4 -11 9 -17 9 -30 -1 -18 -16 -98
-20 -134 -7 -31 10 -94 12 -110 2 -7 -4 -43 -8 -80 -10 -47 -1 -73 -7 -84 -18
-23 -23 -123 -44 -138 -29 -25 25 -98 11 -98 -18 0 -15 9 -18 53 -18 184 0
337 -16 337 -35 0 -5 8 -1 18 9 16 16 17 16 20 1 4 -18 22 -24 22 -7 0 6 9 10
20 10 23 0 24 -4 10 -31 -8 -14 -21 -19 -50 -19 -25 0 -40 -5 -40 -12 0 -9 -4
-8 -10 2 -6 10 -10 11 -10 3 0 -7 -9 -13 -19 -13 -11 0 -23 -5 -26 -10 -4 -6
-12 -10 -18 -9 -41 5 -57 -2 -57 -25 0 -26 21 -36 83 -36 20 0 37 -4 37 -9 0
-6 14 -11 32 -13 55 -5 46 -28 -11 -28 -28 0 -51 -4 -51 -10 0 -15 -117 -13
-123 3 -4 9 -8 8 -16 -3 -9 -12 -13 -12 -19 -3 -4 7 -26 14 -47 17 -53 5 -87
19 -120 50 -15 14 -36 26 -46 26 -11 0 -19 5 -19 11 0 5 -16 17 -35 25 -19 8
-35 19 -35 24 0 6 -11 16 -25 22 -14 6 -25 17 -25 25 0 7 -6 16 -14 19 -8 3
-23 28 -32 55 -10 27 -21 49 -25 49 -4 0 -15 25 -24 55 -8 30 -20 55 -25 55
-6 0 -10 6 -10 13 0 14 -40 53 -83 82 -17 10 -29 30 -33 51 -3 19 -12 41 -20
48 -7 8 -21 54 -31 102 -9 49 -20 91 -25 92 -12 5 -10 142 2 142 6 0 10 7 10
15 0 8 4 15 9 15 5 0 11 9 14 19 3 12 18 22 38 26 19 4 37 12 41 18 4 6 29 10
57 8 l51 -2 0 33 c1 39 14 59 53 76 40 18 42 16 42 -32 0 -37 6 -49 38 -83 37
-37 42 -40 99 -40 39 -1 64 -6 69 -14 7 -10 11 -11 17 -3 4 7 16 13 27 16 17
3 20 11 20 66 1 34 -3 62 -7 62 -4 0 -8 7 -8 15 0 8 5 15 11 15 7 0 9 10 7 25
-4 18 -1 25 11 26 12 0 11 3 -4 10 -16 7 -14 8 10 5 17 -3 51 -8 77 -11z
m-1305 -140 l0 -100 -10 78 c-6 42 -14 77 -19 77 -13 0 -9 78 5 83 19 6 25
-29 24 -138z m1187 120 c-4 -8 -10 -15 -15 -15 -5 0 -9 7 -9 15 0 8 7 15 15
15 9 0 12 -6 9 -15z m-174 -35 c0 -5 -4 -10 -10 -10 -5 0 -10 5 -10 10 0 6 5
10 10 10 6 0 10 -4 10 -10z m563 -7 c-7 -2 -19 -2 -25 0 -7 3 -2 5 12 5 14 0
19 -2 13 -5z m465 -9 c11 -20 3 -64 -13 -71 -7 -2 -18 -17 -25 -33 -8 -19 -20
-29 -39 -32 -27 -4 -27 -4 -15 32 7 19 13 43 14 53 0 9 6 17 13 18 10 0 10 2
0 6 -7 2 -13 13 -13 24 0 15 7 19 35 19 21 0 37 -6 43 -16z m-2098 -13 c0 -30
-11 -51 -26 -51 -15 0 -18 27 -8 54 9 22 34 20 34 -3z m97 -43 c-3 -8 -6 -5
-6 6 -1 11 2 17 5 13 3 -3 4 -12 1 -19z m1134 -38 c5 0 9 -4 9 -10 0 -15 -40
-12 -41 3 0 10 -2 10 -6 0 -7 -18 -33 -16 -33 2 0 7 6 18 13 22 8 4 17 17 22
28 7 18 9 17 18 -12 5 -18 14 -33 18 -33z m617 -8 c2 -7 -3 -12 -12 -12 -9 0
-16 7 -16 16 0 17 22 14 28 -4z m-1734 -35 c5 -27 4 -37 -3 -32 -6 3 -11 22
-11 42 0 44 5 41 14 -10z m1726 -12 c0 -8 -7 -15 -15 -15 -16 0 -20 12 -8 23
11 12 23 8 23 -8z m450 -5 c0 -5 -4 -10 -10 -10 -5 0 -10 5 -10 10 0 6 5 10
10 10 6 0 10 -4 10 -10z m-2173 -72 c-3 -7 -5 -2 -5 12 0 14 2 19 5 13 2 -7 2
-19 0 -25z m-49 -236 c2 -15 -2 -22 -12 -22 -11 0 -16 9 -16 26 0 31 23 28 28
-4z m2799 -54 c-3 -8 -6 -5 -6 6 -1 11 2 17 5 13 3 -3 4 -12 1 -19z m-747
-188 c0 -5 -4 -10 -10 -10 -5 0 -10 5 -10 10 0 6 5 10 10 10 6 0 10 -4 10 -10z
m-33 -16 c-3 -3 -12 -4 -19 -1 -8 3 -5 6 6 6 11 1 17 -2 13 -5z m-1632 -54 c8
-13 -5 -13 -25 0 -13 8 -13 10 2 10 9 0 20 -4 23 -10z m-174 -50 c6 0 30 -20
54 -44 25 -24 57 -52 72 -61 16 -10 34 -27 41 -37 7 -10 19 -18 27 -18 8 0 19
-9 25 -20 6 -11 16 -20 23 -20 7 0 23 -9 35 -21 13 -11 39 -27 60 -36 20 -8
39 -18 42 -22 9 -11 49 -31 64 -31 8 0 21 -6 28 -13 7 -8 34 -21 58 -29 43
-14 45 -17 46 -54 3 -81 12 -127 26 -135 9 -5 21 -22 28 -39 7 -16 17 -30 22
-30 5 0 11 -8 15 -17 9 -24 75 -93 89 -93 7 0 14 -7 18 -15 3 -8 12 -15 21
-15 8 0 24 -9 34 -19 27 -27 61 -37 61 -17 0 8 -4 18 -10 21 -5 3 -10 15 -10
25 0 10 -6 25 -13 32 -8 7 -22 37 -31 66 -10 28 -21 52 -25 52 -11 0 -31 86
-31 136 l0 46 53 -7 c28 -4 54 -11 57 -14 7 -10 122 -30 214 -37 42 -4 76 -11
76 -15 0 -5 47 -9 105 -9 63 0 105 4 105 10 0 6 12 10 28 10 46 0 257 32 262
40 3 5 31 11 63 15 53 7 57 6 57 -13 0 -33 -31 -116 -46 -125 -8 -4 -14 -15
-14 -22 0 -8 -8 -23 -17 -33 -24 -25 -43 -59 -43 -76 0 -8 -6 -19 -12 -23 -17
-10 -53 -81 -46 -89 8 -7 58 7 58 16 0 5 10 12 23 16 27 8 97 74 97 92 0 6 4
12 9 12 5 0 17 20 28 45 10 25 21 45 25 45 12 0 38 57 38 85 0 14 5 25 10 25
6 0 10 9 10 20 0 28 21 70 35 70 13 0 77 30 85 40 3 3 21 12 40 20 19 7 40 18
45 25 6 7 25 19 43 29 17 9 32 21 32 26 0 6 6 10 14 10 7 0 40 27 72 60 32 33
64 60 70 60 21 0 34 -52 24 -95 -5 -22 -14 -41 -19 -43 -6 -2 -11 -11 -11 -21
0 -25 -30 -111 -39 -111 -4 0 -14 -18 -21 -40 -8 -23 -18 -44 -24 -48 -6 -4
-20 -25 -31 -46 -29 -58 -133 -172 -183 -201 -18 -11 -32 -22 -32 -25 0 -3
-17 -14 -37 -25 -21 -11 -41 -25 -45 -31 -4 -6 -25 -16 -48 -24 -22 -7 -40
-16 -40 -20 0 -4 -27 -15 -60 -24 -33 -9 -60 -21 -60 -25 0 -5 -35 -17 -77
-27 -43 -10 -81 -22 -84 -27 -3 -4 -22 -10 -41 -11 -31 -3 -35 0 -32 18 3 14
1 12 -6 -6 -10 -24 -14 -25 -43 -17 -39 11 -59 11 -32 -1 16 -7 17 -9 3 -9 -9
-1 -24 -9 -34 -18 -15 -15 -38 -18 -156 -18 -111 0 -141 3 -148 15 -5 8 -6 18
-3 23 3 5 -8 6 -27 2 -36 -8 -160 12 -160 26 0 5 -8 9 -19 9 -23 0 -124 31
-131 41 -3 4 -25 10 -49 14 -24 4 -51 15 -61 25 -9 9 -31 26 -49 36 -17 10
-31 21 -31 25 0 3 -21 14 -47 24 -27 10 -54 25 -61 32 -7 7 -19 13 -26 13 -7
0 -21 8 -32 18 -10 10 -35 27 -54 38 -19 10 -41 25 -48 32 -7 6 -18 12 -23 12
-15 0 -76 65 -84 89 -3 11 -10 21 -14 21 -4 0 -15 23 -25 50 -10 28 -21 50
-25 50 -8 0 -41 92 -41 112 0 5 -6 16 -14 23 -8 8 -20 46 -27 85 -7 38 -16 70
-21 70 -4 0 -8 21 -8 46 0 27 -6 51 -15 60 -8 9 -15 20 -15 25 0 6 7 3 16 -5
8 -9 20 -16 25 -16z m209 20 c0 -5 -4 -10 -10 -10 -5 0 -10 5 -10 10 0 6 5 10
10 10 6 0 10 -4 10 -10z m30 -30 c0 -5 9 -10 19 -10 10 0 21 -7 25 -15 3 -8
12 -15 20 -15 8 0 21 -9 29 -20 7 -11 30 -27 50 -35 20 -8 37 -19 37 -23 0 -8
105 -42 128 -42 17 0 15 -17 -2 -23 -17 -7 -56 2 -56 13 0 5 -25 16 -55 25
-30 10 -55 21 -55 25 0 4 -13 13 -30 20 -16 7 -30 19 -30 26 0 8 -8 14 -17 14
-10 0 -33 13 -50 29 -34 30 -40 41 -23 41 6 0 10 -4 10 -10z m1289 -117 c0
-11 -3 -13 -6 -5 -2 6 -11 12 -18 12 -7 0 -16 -6 -18 -12 -3 -8 -6 -6 -6 5 -1
12 7 17 24 17 17 0 25 -5 24 -17z m-1194 -23 c3 -6 -1 -7 -9 -4 -18 7 -21 14
-7 14 6 0 13 -4 16 -10z m1076 -3 c-1 -4 -1 -14 -1 -22 0 -8 -7 -15 -15 -15
-13 0 -14 10 -6 48 2 7 22 -4 22 -11z m53 5 c2 -4 -4 -8 -14 -8 -10 0 -16 4
-14 8 3 4 9 8 14 8 5 0 11 -4 14 -8z m-1034 -56 c25 -10 47 -21 50 -25 3 -4
35 -15 73 -25 37 -10 67 -22 67 -26 0 -5 12 -10 27 -12 14 -2 29 -9 31 -17 4
-11 -3 -12 -34 -7 -54 11 -114 30 -114 37 0 3 -21 14 -47 24 -27 10 -50 21
-53 24 -3 4 -17 14 -32 24 -16 10 -28 23 -28 30 0 8 3 9 8 1 4 -6 27 -18 52
-28z m290 -126 c0 -5 -7 -10 -15 -10 -8 0 -15 5 -15 10 0 6 7 10 15 10 8 0 15
-4 15 -10z m-750 -86 c8 -14 22 -30 32 -35 10 -5 18 -18 18 -28 0 -31 -35 -14
-50 25 -8 19 -17 34 -21 34 -4 0 -9 7 -13 15 -10 26 20 17 34 -11z m100 -163
c11 -26 11 -36 2 -39 -7 -2 -12 -11 -12 -19 0 -11 -7 -14 -23 -9 -18 4 -23 1
-24 -17 -1 -12 -7 -23 -13 -25 -13 -5 -13 -72 0 -72 6 0 10 -12 10 -26 0 -14
4 -23 9 -20 4 3 8 -9 7 -27 -2 -34 -29 -50 -39 -22 -5 10 0 15 13 15 29 0 25
17 -6 24 -25 7 -25 8 -20 79 6 89 16 137 27 137 5 0 9 7 9 15 0 8 5 25 11 39
14 29 27 20 49 -33z m-248 -84 c-5 -7 -10 -26 -10 -44 0 -18 -6 -38 -12 -45
-6 -7 -17 -22 -25 -33 -13 -19 -14 -17 -15 26 0 58 17 107 38 112 24 5 35 -3
24 -16z m98 -12 c0 -8 -7 -15 -15 -15 -8 0 -15 7 -15 15 0 8 7 15 15 15 8 0
15 -7 15 -15z m-60 -60 c0 -8 -4 -15 -10 -15 -5 0 -10 7 -10 15 0 8 5 15 10
15 6 0 10 -7 10 -15z m-117 -95 c21 -25 22 -60 2 -60 -8 0 -15 5 -15 10 0 6
-9 10 -20 10 -11 0 -20 7 -20 15 0 8 5 15 10 15 6 0 10 7 10 15 0 21 12 19 33
-5z m534 -36 c7 -18 -12 -34 -39 -34 -21 0 -24 20 -6 38 17 17 37 15 45 -4z
m-510 -40 c-3 -3 -12 -4 -19 -1 -8 3 -5 6 6 6 11 1 17 -2 13 -5z m255 -36 c-8
-8 -9 -4 -5 13 4 13 8 18 11 10 2 -7 -1 -18 -6 -23z m-242 6 c0 -8 -4 -12 -10
-9 -5 3 -10 10 -10 16 0 5 5 9 10 9 6 0 10 -7 10 -16z m290 -3 c0 -10 -8 -21
-18 -23 -15 -4 -18 -1 -14 18 5 28 32 32 32 5z m-269 -61 c8 -6 24 -90 36
-192 3 -27 9 -48 13 -48 4 0 11 -35 14 -77 4 -43 12 -103 18 -134 5 -31 8 -65
5 -75 -2 -12 -7 -3 -12 24 -4 24 -13 49 -20 56 -7 7 -15 21 -18 32 -2 10 -3 7
-2 -9 2 -34 -19 -31 -24 4 -1 13 -7 27 -12 30 -5 3 -11 23 -13 44 -2 29 1 39
15 42 19 5 14 43 -6 43 -14 0 -26 23 -24 48 1 10 4 7 9 -8 5 -17 8 -19 9 -7 1
24 17 21 26 -5 4 -15 8 -18 12 -10 3 7 0 19 -6 26 -6 7 -9 21 -5 30 4 10 1 16
-9 16 -8 0 -17 -5 -19 -10 -1 -6 -3 39 -3 100 0 60 2 104 4 97 2 -6 8 -14 12
-17z m286 8 c-3 -8 -6 -5 -6 6 -1 11 2 17 5 13 3 -3 4 -12 1 -19z m453 -18 c0
-5 -7 -10 -15 -10 -8 0 -15 5 -15 10 0 6 7 10 15 10 8 0 15 -4 15 -10z m-330
-34 c0 -2 -7 -7 -16 -10 -8 -3 -12 -2 -9 4 6 10 25 14 25 6z m-304 -544 c-4
-3 -11 0 -16 8 -15 24 -11 33 6 15 9 -9 13 -19 10 -23z m4 -22 c0 -5 -4 -10
-10 -10 -5 0 -10 5 -10 10 0 6 5 10 10 10 6 0 10 -4 10 -10z m2157 4 c-3 -3
-12 -4 -19 -1 -8 3 -5 6 6 6 11 1 17 -2 13 -5z"/>
<path d="M3010 2670 c0 -5 5 -10 10 -10 6 0 10 5 10 10 0 6 -4 10 -10 10 -5 0
-10 -4 -10 -10z"/>
<path d="M2923 2633 c-15 -5 -17 -23 -4 -23 5 0 11 7 15 15 3 8 4 15 3 14 -1
0 -8 -3 -14 -6z"/>
<path d="M2475 2540 c-16 -7 -17 -9 -3 -9 9 -1 20 4 23 9 7 11 7 11 -20 0z"/>
<path d="M2893 2130 c-12 -11 -29 -20 -38 -20 -9 0 -24 -4 -34 -10 -22 -11
-81 3 -92 22 -6 10 -12 8 -23 -7 -24 -31 -19 -37 27 -33 36 4 46 0 68 -23 22
-24 33 -28 84 -28 37 0 61 -4 66 -13 7 -10 9 -10 9 0 0 6 7 12 15 12 8 0 15 4
15 9 0 5 11 19 24 32 24 23 25 39 3 39 -7 0 -6 -4 3 -10 9 -6 10 -10 3 -10
-19 0 -24 17 -10 32 12 11 7 13 -27 14 -23 0 -48 3 -56 7 -10 5 -24 0 -37 -13z"/>
<path d="M3390 2070 c0 -5 9 -10 20 -10 11 0 20 5 20 10 0 6 -9 10 -20 10 -11
0 -20 -4 -20 -10z"/>
<path d="M3010 1170 c0 -5 5 -10 10 -10 6 0 10 5 10 10 0 6 -4 10 -10 10 -5 0
-10 -4 -10 -10z"/>
<path d="M3110 1170 c0 -5 5 -10 10 -10 6 0 10 5 10 10 0 6 -4 10 -10 10 -5 0
-10 -4 -10 -10z"/>
<path d="M2823 1146 c-13 -6 -23 -16 -23 -23 0 -16 57 -17 62 -2 2 7 26 11 58
11 30 -1 73 2 95 5 36 6 37 7 15 13 -14 4 -29 4 -35 1 -15 -9 -128 -10 -140
-2 -5 4 -20 2 -32 -3z"/>
<path d="M3073 1083 c-15 -5 -17 -23 -4 -23 5 0 11 7 15 15 3 8 4 15 3 14 -1
0 -8 -3 -14 -6z"/>
<path d="M2540 976 c0 -14 29 -30 38 -21 3 3 0 5 -6 5 -7 0 -12 7 -12 15 0 8
-4 15 -10 15 -5 0 -10 -6 -10 -14z"/>
<path d="M2120 4388 c-13 -5 -27 -12 -30 -16 -3 -4 -24 -16 -47 -27 -45 -21
-62 -58 -22 -48 11 3 23 11 25 17 3 7 25 21 49 31 25 11 47 26 50 34 7 19 4
20 -25 9z"/>
<path d="M2130 4243 c0 -5 5 -15 10 -23 8 -12 10 -11 10 8 0 12 -4 22 -10 22
-5 0 -10 -3 -10 -7z"/>
<path d="M2080 4220 c0 -5 -11 -12 -25 -16 -18 -4 -25 -13 -25 -30 0 -30 16
-32 23 -3 4 14 11 20 20 16 16 -6 37 11 37 30 0 7 -7 13 -15 13 -8 0 -15 -4
-15 -10z"/>
<path d="M2768 4132 c-16 -2 -28 -8 -28 -13 0 -5 -6 -9 -13 -9 -8 0 -28 -7
-45 -16 -30 -15 -32 -19 -32 -72 0 -139 21 -197 48 -137 6 14 18 25 27 25 8 0
15 6 15 13 0 7 10 23 23 35 35 33 47 50 47 67 0 8 5 15 10 15 17 0 11 60 -7
78 -11 10 -29 16 -45 14z"/>
<path d="M2097 4091 l-48 -16 7 -40 c3 -22 9 -42 13 -45 10 -8 30 -71 37 -117
4 -24 10 -43 13 -43 4 0 16 -42 26 -92 10 -51 21 -95 25 -98 3 -3 15 -49 25
-102 19 -96 19 -97 44 -92 52 11 53 12 46 46 -4 18 -11 35 -15 38 -8 5 -26
108 -37 205 -3 28 -8 52 -13 55 -8 6 -40 210 -40 260 0 26 -20 63 -32 59 -2
-1 -25 -8 -51 -18z"/>
<path d="M2693 3814 c-14 -15 -16 -48 -7 -118 7 -45 24 -65 24 -26 0 11 4 20
8 20 5 0 14 29 21 65 13 65 9 93 -10 65 -6 -11 -11 -12 -16 -4 -6 9 -11 8 -20
-2z"/>
<path d="M2810 3820 c0 -5 5 -10 10 -10 6 0 10 5 10 10 0 6 -4 10 -10 10 -5 0
-10 -4 -10 -10z"/>
<path d="M1335 3640 c3 -5 8 -10 11 -10 2 0 4 5 4 10 0 6 -5 10 -11 10 -5 0
-7 -4 -4 -10z"/>
<path d="M1280 3605 c0 -5 91 -95 96 -95 2 0 4 9 4 20 0 11 -4 20 -10 20 -5 0
-10 6 -10 13 0 20 -33 47 -58 47 -12 0 -22 -2 -22 -5z"/>
<path d="M1100 3370 c0 -5 7 -10 15 -10 8 0 15 5 15 10 0 6 -7 10 -15 10 -8 0
-15 -4 -15 -10z"/>
<path d="M2269 3353 c-31 -3 -36 -7 -32 -24 5 -19 23 -27 23 -9 0 5 11 12 25
16 14 3 25 10 25 15 0 5 -1 8 -2 7 -2 -1 -19 -3 -39 -5z"/>
<path d="M1000 920 c0 -5 -6 -10 -14 -10 -20 0 -75 -32 -81 -47 -2 -7 2 -13
11 -13 8 0 17 7 20 15 4 8 14 15 23 15 9 0 23 6 30 13 9 7 12 8 7 0 -4 -8 0
-8 19 0 30 14 33 37 5 37 -11 0 -20 -4 -20 -10z"/>
<path d="M978 853 c-10 -2 -18 -9 -18 -15 0 -5 -6 -8 -14 -5 -10 4 -12 0 -9
-14 4 -14 0 -19 -16 -19 -11 0 -21 -6 -21 -12 0 -7 -5 -5 -11 5 -5 9 -15 17
-22 17 -7 0 -6 -4 3 -10 13 -8 13 -10 -2 -10 -11 0 -19 -14 -26 -46 l-10 -47
46 -43 c26 -24 50 -44 53 -44 4 0 10 16 13 35 7 34 8 35 51 35 27 0 45 5 45
11 0 7 -11 9 -27 6 -50 -9 -70 17 -39 49 8 8 15 32 14 53 0 22 3 44 6 50 4 6
6 10 4 10 -2 -1 -11 -3 -20 -6z"/>
<path d="M750 787 c0 -8 9 -22 20 -32 20 -18 21 -18 18 13 -2 23 -7 32 -20 32
-10 0 -18 -6 -18 -13z"/>
<path d="M1022 765 c-11 -13 -9 -15 8 -15 11 0 20 7 20 15 0 19 -11 19 -28 0z"/>
<path d="M815 720 c3 -5 8 -10 11 -10 2 0 4 5 4 10 0 6 -5 10 -11 10 -5 0 -7
-4 -4 -10z"/>
<path d="M995 640 c-4 -6 3 -10 14 -10 25 0 27 6 6 13 -8 4 -17 2 -20 -3z"/>
<path d="M980 571 c0 -6 5 -13 10 -16 6 -3 10 1 10 9 0 9 -4 16 -10 16 -5 0
-10 -4 -10 -9z"/>
</g>
</svg>
